# xmcd
#
# Track frame offsets: 
#        150
#        19380
#        41570
#        59612
#        80835
#        102777
#        124117
#        139285
#        149545
#        168622
#        191862
#        211152
#        224062
#        239962
#        255442
#
# Disc length: 3968 seconds
#
# Revision: 2
# Processed by: cddbd v1.5.2PL0 Copyright (c) Steve Scherf et al.
# Submitted via: ExactAudioCopy v0.99pb3
#
DISCID=f80f7e0f
DTITLE=Rolf Wikström - ...det här är mitt liv...
DYEAR=1988
DGENRE=Blues
TTITLE0=Solidaritet
TTITLE1=Vi ska bygga upp en kyrka
TTITLE2=Det här är mitt liv
TTITLE3=Ge mej en öl till
TTITLE4=En valsmelodi
TTITLE5=Bluesman
TTITLE6=The Stumble
TTITLE7=Mamma älskar pappa
TTITLE8=Sommarfräscha flicka
TTITLE9=Jag älskar dej ändå
TTITLE10=När allt har blivit sagt
TTITLE11=Starka band
TTITLE12=Börja dagen med en starköl
TTITLE13=Sänd inga blommor
TTITLE14=Som vattnet flyter i floden
EXTD=
EXTT0=
EXTT1=
EXTT2=
EXTT3=
EXTT4=
EXTT5=
EXTT6=
EXTT7=
EXTT8=
EXTT9=
EXTT10=
EXTT11=
EXTT12=
EXTT13=
EXTT14=
PLAYORDER=
